<svg width="160" height="160" xmlns="http://www.w3.org/2000/svg">
 <g>
  <title>Layer 1</title>
  <path stroke="null" id="svg_1" d="m150.717993,80.689803l-14.236714,0l0,-9.345416c0,-3.095587 -2.507764,-5.603534 -5.603169,-5.603534l-99.069173,0c-3.095769,0 -5.603534,2.507947 -5.603534,5.603534l0,9.345416l-14.236896,0c-4.494194,0 -8.135161,3.6437 -8.135161,8.134979s3.641332,8.135343 8.135161,8.135343l14.236896,0l0,21.551072c0,12.604945 10.216859,22.821986 22.822168,22.821986l64.631722,0c12.605128,0 22.822168,-10.217041 22.822168,-22.821986l0,-21.551072l14.236714,0c4.493829,0 8.135343,-3.6437 8.135343,-8.135343c0,-4.490915 -3.641696,-8.134979 -8.135525,-8.134979z"/>
  <path stroke="null" id="svg_2" d="m9.948739,63.439739l86.654645,-19.74147c4.16514,-0.951295 6.769878,-5.093786 5.821196,-9.256661c-0.946417,-4.16758 -5.106679,-6.769878 -9.254222,-5.823635l-37.346183,8.508344l-0.744659,-14.301837c-0.050701,-0.981611 -0.533666,-1.890046 -1.31892,-2.483996c-0.782641,-0.591859 -1.789341,-0.807904 -2.748129,-0.591859l-10.34647,2.360815c-0.958613,0.216568 -1.771744,0.8485 -2.222303,1.721392c-0.450559,0.873589 -0.490631,1.902591 -0.110288,2.809109l5.524482,13.212378l-37.341653,8.507299c-4.16514,0.951295 -6.770052,5.09396 -5.821196,9.256487c0.815222,3.588962 4.001713,6.01494 7.530043,6.01494c0.568861,0 1.147652,-0.060284 1.723657,-0.191304z"/>
  <path stroke="null" id="svg_3" d="m112.655372,52.155346c6.04469,-0.624248 13.398932,-2.265308 17.91353,-6.278696c4.525276,3.850188 11.102284,4.739085 16.600496,1.682847c7.058948,-3.938172 9.593085,-12.856168 5.658395,-19.918367c-0.159486,-0.285079 -0.376545,-0.51537 -0.552978,-0.790234c4.456793,-3.697434 5.80372,-10.156278 2.883056,-15.400055c-3.303709,-5.923044 -10.779597,-8.049527 -16.705427,-4.745586c-0.62123,0.349384 -1.180709,0.763537 -1.71999,1.197656c-4.637404,-3.208993 -10.858063,-3.765453 -16.119019,-0.834575c-7.373974,4.111355 -10.020006,13.422379 -5.908883,20.796818c0.797199,1.435144 1.841869,2.632335 2.978237,3.694184c-1.030973,4.426613 -3.19576,11.159625 -7.424815,15.90846c-0.77352,0.871951 -0.936488,2.130894 -0.407421,3.168367c0.528139,1.027258 1.64106,1.630613 2.804822,1.519182z"/>
  <path stroke="null" id="svg_4" d="m126.832255,146.425043c0,1.248031 -0.841676,2.25981 -1.879956,2.25981l-86.906521,0c-1.03828,0 -1.879956,-1.011778 -1.879956,-2.25981l0,0c0,-1.248031 0.841676,-2.25981 1.879956,-2.25981l86.906316,0c1.038485,0 1.880162,1.011778 1.880162,2.25981l0,0z"/>
 </g>
</svg>